<?xml version="1.0" encoding="utf-8"?>
<!-- Generator: Adobe Illustrator 22.1.0, SVG Export Plug-In . SVG Version: 6.00 Build 0)  -->
<svg version="1.1" id="Layer_1" xmlns="http://www.w3.org/2000/svg" xmlns:xlink="http://www.w3.org/1999/xlink" x="0px" y="0px"
	 viewBox="0 0 300 195.3" style="enable-background:new 0 0 300 195.3;" xml:space="preserve">
<style type="text/css">
	.st0{clip-path:url(#SVGID_2_);}
	.st1{fill:url(#SVGID_3_);}
	.st2{fill:url(#SVGID_4_);}
	.st3{fill:url(#SVGID_5_);}
	.st4{clip-path:url(#SVGID_7_);}
	.st5{fill:url(#SVGID_8_);}
	.st6{fill:url(#SVGID_9_);}
	.st7{fill:url(#SVGID_10_);}
	.st8{fill:url(#SVGID_11_);}
	.st9{fill:url(#SVGID_12_);}
	.st10{fill:url(#SVGID_13_);}
	.st11{clip-path:url(#SVGID_15_);fill:url(#SVGID_16_);}
	.st12{fill:#A4D394;}
	.st13{clip-path:url(#SVGID_18_);fill:url(#SVGID_19_);}
	.st14{fill:#7CBC67;}
	.st15{fill:url(#SVGID_20_);}
	.st16{fill:url(#SVGID_21_);}
	.st17{fill:url(#SVGID_22_);}
	.st18{fill:url(#SVGID_23_);}
	.st19{fill:#5FA251;}
	.st20{fill:none;}
	.st21{fill:#FAAF99;}
	.st22{fill:#F78F6A;}
	.st23{fill:#E6F9FC;}
	.st24{fill:#F5DF7B;}
	.st25{fill:#539B4B;}
	.st26{fill:#9B886D;}
	.st27{fill:#FCF4C9;}
	.st28{fill:#50AEE2;}
	.st29{fill:#51C8FC;}
	.st30{fill:#C4B299;}
	.st31{fill:#CDBC9D;}
	.st32{fill:#B4A285;}
	.st33{fill:#FFFFFF;}
	.st34{fill:none;stroke:#F78F6A;stroke-width:2.2399;stroke-linecap:round;stroke-miterlimit:10;}
	.st35{fill:none;stroke:#FFFEDF;stroke-width:0.8574;stroke-linecap:round;stroke-miterlimit:10;}
	.st36{fill:#333333;}
	.st37{fill:#FCCEC7;}
	.st38{fill:#77D3FA;}
	.st39{fill:#F58E6B;}
	.st40{fill:#F9EAA2;}
	.st41{fill:#919090;}
	.st42{fill:none;stroke:#FCF4C9;stroke-width:0.7615;stroke-linecap:round;stroke-linejoin:round;stroke-miterlimit:10;}
	.st43{fill:none;stroke:#FCF4C9;stroke-width:0.708;stroke-linecap:round;stroke-linejoin:round;stroke-miterlimit:10;}
	.st44{fill:#87765C;}
	.st45{fill:#0B6333;}
	.st46{fill:#F8FFDE;}
	.st47{fill:#BBBBBB;}
	.st48{fill:#CDE9C1;}
	.st49{fill:#C4E7F6;}
	.st50{fill:none;stroke:#FCCEC7;stroke-width:2.4149;stroke-linecap:round;stroke-miterlimit:10;}
	.st51{fill:none;stroke:#333333;stroke-width:3.2647;stroke-linecap:round;stroke-miterlimit:10;}
	.st52{fill:none;stroke:#FFFEDF;stroke-width:0.984;stroke-miterlimit:10;}
	.st53{fill:none;stroke:#FFFEDF;stroke-width:1.476;stroke-linecap:round;stroke-miterlimit:10;}
	.st54{fill:none;stroke:#FFFEDF;stroke-width:1.4047;stroke-linecap:round;stroke-miterlimit:10;}
	.st55{fill:#BDECC9;}
	.st56{clip-path:url(#SVGID_25_);fill:#F5DF7B;}
	.st57{clip-path:url(#SVGID_25_);fill:#9B886D;}
	
		.st58{clip-path:url(#SVGID_25_);fill:none;stroke:#787879;stroke-width:5.9338;stroke-linecap:round;stroke-linejoin:round;stroke-miterlimit:10;}
	.st59{fill:#5FAFE1;}
	.st60{fill:#B2A083;}
	.st61{fill:#E6FCF9;}
	.st62{fill:none;stroke:#FFFEDF;stroke-width:0.9134;stroke-miterlimit:10;}
	.st63{fill:#938069;}
	.st64{fill:#5F5F5F;}
	.st65{fill:none;stroke:#FFE4E1;stroke-width:2.0642;stroke-linecap:round;stroke-miterlimit:10;}
	.st66{clip-path:url(#SVGID_27_);fill:#9B886D;}
	.st67{clip-path:url(#SVGID_27_);fill:#C4B299;}
	.st68{clip-path:url(#SVGID_27_);fill:#F78F6A;}
	.st69{clip-path:url(#SVGID_27_);fill:#FAAF99;}
	.st70{clip-path:url(#SVGID_27_);fill:#F5DF7B;}
	.st71{clip-path:url(#SVGID_27_);fill:#5F5F5F;}
	.st72{clip-path:url(#SVGID_27_);fill:#CDBC9D;}
	.st73{clip-path:url(#SVGID_27_);fill:#FFE4E1;}
	.st74{fill:#787878;}
	.st75{fill:none;stroke:#FCCEC7;stroke-width:2.219;stroke-linecap:round;stroke-miterlimit:10;}
	.st76{fill:none;stroke:#FFFEDF;stroke-width:0.8876;stroke-miterlimit:10;}
	.st77{fill:none;stroke:#FFFEDF;stroke-width:1.3314;stroke-linecap:round;stroke-miterlimit:10;}
	.st78{fill:none;stroke:#5F5F5F;stroke-width:1.561;stroke-miterlimit:10;}
	.st79{fill:none;stroke:#F78F6A;stroke-width:2.219;stroke-linecap:round;stroke-miterlimit:10;}
	.st80{fill:#9B948C;}
	.st81{fill:#A2DEDC;}
	.st82{fill:#8AC8EF;}
	.st83{fill:#59A452;}
	.st84{fill:#419243;}
</style>
<g>
	<g>
		<defs>
			<path id="SVGID_26_" d="M143.1,34.9c25.5-2.7,47.7,18.4,68.4,21.3c15.7,2.2,30.5-4.1,41,12.7c4.8,7.7,2.8,17.2,4.2,30.8
				c1.6,15.3,36.7,32.1,24.8,46.9c-24.5,30.5-66.7,14.5-87.8,17.9c-18.8,3-18.2-4.2-46.2-3c-24.8,1.1-17.6-18.3-37.7-18.6
				c-22.5-0.3-9.1,34.5-26.2,34.2C24.4,176-4.8,125,3.3,109.7c8-15.1,40.9-21.4,50.8-27"/>
		</defs>
		<clipPath id="SVGID_2_">
			<use xlink:href="#SVGID_26_"  style="overflow:visible;"/>
		</clipPath>
		<path style="clip-path:url(#SVGID_2_);fill:#9B886D;" d="M170.9,90.6c0,0,7.9,1.6,15.2,3.9c4.8,1.5,8.8,5.4,10,8.3
			c1.5,3.6,0.7,10.7,0.7,10.7l-26.5-12.9L170.9,90.6z"/>
		<path style="clip-path:url(#SVGID_2_);fill:#C4B299;" d="M247,102.9c0,0,23,22.3,23.7,46c0,0-4.7,0.2-5.3,0
			c-0.6-0.2-20.2-7.9-20.2-7.9l-0.8-22L247,102.9z"/>
		<path style="clip-path:url(#SVGID_2_);fill:#F78F6A;" d="M101.9,76.5c0,0,37.9,12.7,51.4,28.5c5,5.8,12.5-5.6,15.5-4.9
			c3.1,0.6,6.2,6.6,8,10.8c1.8,4.2-7.2,8.4-23.7,7.7s-34.5-1.1-34.5-1.1L101.9,76.5z"/>
		<path style="clip-path:url(#SVGID_2_);fill:#F78F6A;" d="M83.2,77.5c0,0-78.2,43.3-47.4,60.8c15.6,8.8,56,5.6,56,5.6L82,131.7
			c0,0-20.9-2.3-22-4.4c-6.9-14,29.2-22.6,26.3-35.9C84.5,82.4,83.2,77.5,83.2,77.5z"/>
		<path style="clip-path:url(#SVGID_2_);fill:#FAAF99;" d="M100.6,180.6c-17.6-2-37.8-14.4-38.8-24.4c-1.2-11.3-2.5-35.9,0.9-46.7
			c1-3.3,7.4-33.5,28.3-32.2l8.3,0.5c15.2,1.8,36.9,19.3,35.7,40.2l-1.9,31C131.7,171.5,133.5,184.4,100.6,180.6z"/>
		<path style="clip-path:url(#SVGID_2_);fill:#C4B299;" d="M200.9,108.1c0,0,6.8-4.3,20.2-5.4s21.8-0.2,25.2,5.3
			c3.5,5.5,2,39-12.6,37.8c-14.6-1.3-32.7-31.3-32.5-34C201.6,109.2,200.9,108.1,200.9,108.1z"/>
		<path style="clip-path:url(#SVGID_2_);fill:#F5DF7B;" d="M236,102.4c0,0-3.7,15.9-13.2,16.8s-16.5-13.4-16.5-13.4l-11,2.4
			c0,0-1.1,31.3,2.6,36.2c3.7,4.9,15.1,23.8,17.3,27.7s33.5-4.3,34.3-7.8c0.7-3.6,3.9-20.6,5.3-28.3c2.1-11.1-7.8-33-7.8-33
			L236,102.4z"/>
		<path style="clip-path:url(#SVGID_2_);fill:#5F5F5F;" d="M147.5,88.3c0,0-45.8,20.6-42.4,51.1c0,0,0.9,10.8,9.7,10.9
			c12.4,0.1,25.3-10.9,25.3-10.9L147.5,88.3z"/>
		<path style="clip-path:url(#SVGID_2_);fill:#5F5F5F;" d="M172.2,88c-0.4-0.3,36.3,10.1,39.7,54.1c0.3,3.4-1.3,9.1-9.4,8.6
			c-11.7-0.8-23.9-11-23.9-11L172.2,88z"/>
		<path style="clip-path:url(#SVGID_2_);fill:#5F5F5F;" d="M198.1,238.6l-78.1,0.2l9-121.9c0-17.3,14-31.4,31.4-31.4h0
			c17.6,0,31.4,14,31.4,31.4L198.1,238.6z"/>
		<circle style="clip-path:url(#SVGID_2_);fill:#CDBC9D;" cx="232.1" cy="169.6" r="2"/>
		<path style="clip-path:url(#SVGID_2_);fill:#CDBC9D;" d="M213.4,126.5c0,0,45.5,8,49.2,9.4c6.4,2.3,10.1,9.7,8,14.6
			c-4.7,11.1-60.4-17-60.4-17L213.4,126.5z"/>
	</g>
	<path class="st74" d="M123.5,46c0,9.8-6.9,13.6-15.2,13.6s-15-6.7-15-15s6.7-15,15-15S123.5,35.8,123.5,46z"/>
	<path class="st44" d="M92.6,87.9L92.6,87.9c-6.7-0.4-13.6-4-13.2-10.7l0.5-8l24.4,1.5l-0.5,8C103.5,84.7,99.4,88.3,92.6,87.9z"/>
	<path class="st26" d="M74.7,62.4L74.7,62.4l2.7-11.4c0.7-3.2-0.9-6.2-3.6-6.9l0,0c-2.7-0.6-5.6,1.4-6.3,4.5v0
		C66.1,55,69.3,61.1,74.7,62.4z"/>
	<path class="st26" d="M112,70.4L112,70.4l2.2-11.5c0.6-3.2,3.3-5.3,6.1-4.8l0,0c2.8,0.5,4.5,3.5,3.9,6.7v0
		C122.9,67.2,117.5,71.5,112,70.4z"/>
	<path class="st26" d="M90.9,81.4l-1.3-0.3c-11.8-2.5-19.3-14.5-16.7-26.7l2.4-11.3c2.6-12.1,14.4-20,26.2-17.5l1.3,0.3
		c11.8,2.5,19.3,14.5,16.7,26.7l-2.4,11.3C114.5,76,102.7,83.9,90.9,81.4z"/>
	<circle class="st33" cx="109.5" cy="54.4" r="2.7"/>
	<circle class="st33" cx="88.1" cy="49.8" r="2.7"/>
	<path class="st22" d="M93.9,74.5L93.9,74.5c-4.8-1.1-7.9-5.9-6.8-10.7v0l17.5,3.9l0,0C103.6,72.6,98.8,75.6,93.9,74.5z"/>
	<path class="st33" d="M87.1,63.8l17.5,3.9c0,0-0.1,1.2-1.1,2.8L86.9,67C86.9,67,86.6,66,87.1,63.8z"/>
	<path class="st44" d="M97,62.8l-0.2,0c-1.9-0.4-3.2-2.3-2.8-4.3l1.1-5.1c0.4-1.9,2.3-3.2,4.3-2.8l0.2,0c1.9,0.4,3.2,2.3,2.8,4.3
		l-1.1,5.1C100.9,62,99,63.2,97,62.8z"/>
	<path class="st64" d="M84.8,46l7.5,0.1c1.2,0,2.2-1,2.2-2.2l0-0.1c0-1.2-1-2.2-2.2-2.2l-7.5-0.1c-1.2,0-2.2,1-2.2,2.2l0,0.1
		C82.6,45,83.6,45.9,84.8,46z"/>
	<path class="st64" d="M114.6,51.7l-7.4-2c-1.1-0.3-1.8-1.5-1.5-2.6l0.1-0.2c0.3-1.1,1.5-1.8,2.6-1.5l7.4,2c1.1,0.3,1.8,1.5,1.5,2.6
		l-0.1,0.2C116.9,51.3,115.7,52,114.6,51.7z"/>
	<path class="st36" d="M153.8,61.6l-0.3,21.3c-0.1,4.1-3.4,7.3-7.4,7.2h0c-4.1-0.1-7.3-3.4-7.2-7.4l0.3-21.3L153.8,61.6z"/>
	<path class="st36" d="M178.2,61.9l-0.3,21.3c-0.1,4.1-3.4,7.3-7.4,7.2h0c-4.1-0.1-7.3-3.4-7.2-7.4l0.3-21.3L178.2,61.9z"/>
	<path class="st26" d="M157.2,92.6l-0.4,0c-3.9-0.3-6.8-3.7-6.5-7.5l0.8-11.2l14.4,1.1l-0.8,11.2C164.5,90,161.1,92.9,157.2,92.6z"
		/>
	<path class="st30" d="M223.1,112.8l-0.9,0.2c-4.6,1.2-9.3-1.6-10.4-6.3l-3.3-13.4l17.6-4.4l3.3,13.4
		C230.6,107,227.8,111.7,223.1,112.8z"/>
	<circle class="st26" cx="224.1" cy="41.2" r="11.8"/>
	<path class="st26" d="M213.8,40L213.8,40c-15.2,0.9-26.8,14.2-25.9,29.6v0c0.8,13.1,11.9,23.1,24.8,22.3l8.3-0.5
		c12.9-0.8,22.8-12,22-25.1l0,0C242.2,50.8,229,39.1,213.8,40z"/>
	<path class="st31" d="M214.3,105.1l-1.1,0.1c-10.4,0.6-19.4-7.4-20.1-17.8l-0.7-12.3c-0.6-10.4,7.4-19.4,17.8-20.1l1.1-0.1
		c10.4-0.6,19.4,7.4,20.1,17.8L232,85C232.7,95.5,224.7,104.5,214.3,105.1z"/>
	<polygon class="st26" points="187.6,125.4 192,121.1 184.9,111.7 179.4,117.1 	"/>
	<polygon class="st26" points="124.2,124.4 119.8,120.1 126.9,110.7 132.4,116.1 	"/>
	<path class="st36" d="M159.1,29.8L159.1,29.8c-15.6-0.2-28.5,12.5-28.8,28.3l-0.1,3.7l56.6,0.6l0.1-3.7
		C187.2,42.9,174.7,30,159.1,29.8z"/>
	<path class="st36" d="M144.4,61.5l-0.3,21.3c-0.1,4.1-3.3,7.3-7.2,7.2h0c-3.9,0-7.1-3.4-7-7.4l0.3-21.3L144.4,61.5z"/>
	<path class="st36" d="M186.8,62l-0.4,21.3c-0.1,4.1-3.2,7.3-7.1,7.3h0c-3.8,0-6.9-3.4-6.8-7.4l0.4-21.3L186.8,62z"/>
	<path class="st26" d="M137.5,72l3.4-0.8l-1.8-8.7c-0.4-2-2.3-3.3-4.2-2.9v0c-1.9,0.5-3.1,2.5-2.7,4.5l1,5
		C133.8,71.1,135.6,72.4,137.5,72z"/>
	<path class="st26" d="M178.5,72.5l-3.4-0.9l2-8.7c0.5-2,2.4-3.3,4.3-2.7h0c1.9,0.5,3,2.6,2.5,4.6l-1.2,5
		C182.3,71.8,180.4,73,178.5,72.5z"/>
	<path class="st32" d="M158.4,87.2l-1.2,0c-11.1-0.2-20-9.3-19.8-20.4l0.1-7.1c0.2-11.1,9.3-20,20.4-19.8l1.2,0
		c11.1,0.2,20,9.3,19.8,20.4l-0.1,7.1C178.6,78.4,169.5,87.3,158.4,87.2z"/>
	<path class="st44" d="M158.1,74l-0.2,0c-1.7,0-3-1.4-3-3.1l0-3.3c0-1.7,1.4-3,3.1-3l0.2,0c1.7,0,3,1.4,3,3.1l0,3.3
		C161.1,72.7,159.7,74,158.1,74z"/>
	<circle class="st33" cx="147.5" cy="63.1" r="2.8"/>
	<circle class="st33" cx="168.8" cy="63.4" r="2.8"/>
	<path class="st75" d="M147.4,74.8c0,0,3.8,5.3,11.6,4.4"/>
	<path class="st36" d="M172.3,59.2l-6.9-1.5c-0.8-0.2-1.3-1-1.2-1.8l0-0.1c0.2-0.8,1-1.3,1.8-1.2l6.9,1.5c0.8,0.2,1.3,1,1.2,1.8
		l0,0.1C173.9,58.9,173.1,59.4,172.3,59.2z"/>
	<path class="st36" d="M145.1,58.8l7-1.3c0.8-0.2,1.4-0.9,1.2-1.8l0-0.1c-0.2-0.8-0.9-1.4-1.8-1.2l-7,1.3c-0.8,0.2-1.4,0.9-1.2,1.8
		l0,0.1C143.5,58.4,144.3,59,145.1,58.8z"/>
	<path class="st76" d="M151.2,68l-7.7-0.1c-1.5,0-2.7-1.3-2.7-2.8l0.1-3.9c0-1.5,1.3-2.7,2.8-2.7l7.7,0.1c1.5,0,2.7,1.3,2.7,2.8
		l-0.1,3.9C154,66.8,152.8,68,151.2,68z"/>
	<path class="st76" d="M172.6,68.3l-7.7-0.1c-1.5,0-2.7-1.3-2.7-2.8l0.1-3.9c0-1.5,1.3-2.7,2.8-2.7l7.7,0.1c1.5,0,2.7,1.3,2.7,2.8
		l-0.1,3.9C175.4,67.1,174.1,68.3,172.6,68.3z"/>
	<line class="st76" x1="154.1" y1="63.2" x2="162.2" y2="63.3"/>
	<line class="st77" x1="137.5" y1="60.1" x2="140.4" y2="62.6"/>
	<line class="st77" x1="178.9" y1="60.7" x2="175.8" y2="63.2"/>
	<path class="st36" d="M168.2,42.8l-21.1,10.3c-2.9,1.4-6.2,0.5-7.5-2.1l0,0c-1.3-2.6,0-5.8,2.9-7.3l18-9L168.2,42.8z"/>
	<path class="st36" d="M155.3,53l-0.1-0.2c-0.9-1.8-0.2-3.9,1.5-4.8l17.5-9.1l3.4,6.6l-17.5,9.1C158.3,55.4,156.2,54.8,155.3,53z"/>
	<circle class="st55" cx="135.5" cy="69.3" r="1.2"/>
	<circle class="st55" cx="180.5" cy="69.9" r="1.2"/>
	<path class="st47" d="M185.5,142h-58c-0.7,0-1.4-0.6-1.4-1.4v-39.2c0-0.8,0.6-1.4,1.4-1.4h58c0.7,0,1.4,0.6,1.4,1.4v39.2
		C186.9,141.4,186.3,142,185.5,142z"/>
	<path class="st33" d="M182.4,138.3H131c-0.7,0-1.3-0.6-1.3-1.3v-32.3c0-0.7,0.6-1.3,1.3-1.3h51.4c0.7,0,1.3,0.6,1.3,1.3V137
		C183.7,137.7,183.1,138.3,182.4,138.3z"/>
	<path class="st48" d="M183.7,122.7h-54v-18.4c0-0.5,0.4-1,1-1h52c0.5,0,1,0.4,1,1V122.7z"/>
	<path class="st26" d="M89,123.6c0,0,7.1,0.7,10.4-2.5c3.2-3.1,11.9-10.6,14.1-12.1s3,1.7,1.6,3.8c-1.5,2.1-4.1,13.1-8,16.8
		s-19.9,7.2-25.5,8.1C77.8,138.4,83.3,124.4,89,123.6z"/>
	<path class="st64" d="M182.7,43.3l-47.5-0.7v0c0.1-10.2,10.9-18.3,24-18.1l0,0C172.3,24.7,182.9,33.1,182.7,43.3L182.7,43.3z"/>
	<polygon class="st64" points="195,28.3 122.7,27.3 122.8,22.4 127.5,22.5 195.1,23.4 	"/>
	<path class="st64" d="M162.3,23.7l-6.8-0.1l0-0.1c0-1.8,1.5-3.3,3.3-3.2l0.2,0C160.9,20.3,162.3,21.8,162.3,23.7L162.3,23.7z"/>
	<line class="st78" x1="193.8" y1="27.6" x2="193" y2="38.1"/>
	<path class="st64" d="M194.7,41.8l-4-0.3l0.4-5.3c0.1-1.1,1-1.9,2.1-1.8l0.1,0c1.1,0.1,1.9,1,1.8,2.1L194.7,41.8z"/>
	<path class="st32" d="M122.4,117.4c0,0,3.6-2.3,7.3-2.2c3.8,0,5.3,1,6.4,2.7c2.4,3.5,1.2,7-2.7,10.5c-3.9,3.5-5.7,8.4-9.9,6.8
		c-2.4-0.9-5.4-2.6-5.4-9.9C118.1,120.1,122.4,117.4,122.4,117.4z"/>
	<path class="st32" d="M189.6,118.2c0,0-3.6-2.3-7.3-2.2c-3.8,0-5.3,1-6.4,2.7c-2.4,3.5-1.2,7,2.7,10.5s5.7,8.4,9.9,6.8
		c2.4-0.9,5.4-2.6,5.4-9.9C194,120.9,189.6,118.2,189.6,118.2z"/>
	<path class="st26" d="M209.4,88.9l-0.2,0c-1.4,0.1-2.7-1-2.8-2.4l-0.2-3.1c-0.1-1.4,1-2.7,2.4-2.8l0.2,0c1.4-0.1,2.7,1,2.8,2.4
		l0.2,3.1C211.9,87.5,210.8,88.8,209.4,88.9z"/>
	<circle class="st33" cx="199.9" cy="79.8" r="2.8"/>
	<circle class="st33" cx="217.9" cy="78.7" r="2.8"/>
	<path class="st26" d="M221.7,73.7l-7-1c-0.8-0.1-1.4-0.9-1.3-1.7l0-0.1c0.1-0.8,0.9-1.4,1.7-1.3l7,1c0.8,0.1,1.4,0.9,1.3,1.7l0,0.1
		C223.3,73.2,222.5,73.8,221.7,73.7z"/>
	<path class="st26" d="M195.7,75.3l6.8-1.8c0.8-0.2,1.3-1,1.1-1.8l0-0.1c-0.2-0.8-1-1.3-1.8-1.1l-6.8,1.8c-0.8,0.2-1.3,1-1.1,1.8
		l0,0.1C194.1,75,194.9,75.5,195.7,75.3z"/>
	<path class="st26" d="M214.6,66.1L214.6,66.1c-10.2-4.4-15.5-14.8-11.9-23.2l0,0l36.9,15.9v0C236,67.2,224.8,70.5,214.6,66.1z"/>
	<path class="st31" d="M229.6,89.6L229.6,89.6l1.7-10.9c0.5-3,3-5.1,5.6-4.7h0c2.6,0.4,4.4,3.2,3.9,6.2v0
		C239.8,86.2,234.8,90.4,229.6,89.6z"/>
	<path class="st79" d="M220.6,90.2c0,0-3.4,4.3-10.3,5"/>
	<path class="st31" d="M215.2,134.3c-0.1,0.6-0.7,1-1.2,0.8c-1.7-0.6-5-2-7.8-3.7c-5.6-3.5-1.8-12.8-4.1-16.7
		c-1.6-2.7-2.4-5.1-1.4-6.1l0,0c0.5-0.5,1.4-0.4,1.8,0.2c1.8,2.8,6,9.5,7.4,12.4c1.8,3.6,9.1,6.3,17.2,7.7c7.6,1.3-8.2,3-11.1,3.9
		c-0.4,0.1-0.6,0.4-0.7,0.8L215.2,134.3z"/>
	<path class="st22" d="M85.6,86.2c0,0,3,1.8,7.1,1.7c3.3,0,6.6-1.2,6.6-1.2l-3.6,24.5l-7.7-0.4L85.6,86.2z"/>
	<line class="st77" x1="232.9" y1="87.1" x2="235.3" y2="91"/>
	<line class="st77" x1="234.9" y1="85.7" x2="237.3" y2="89.6"/>
	<path class="st80" d="M203.7,53.9c0,0,11.4,17,35.9,9.1c0,0-11,1.2-18.8-3.3C213.3,55.3,206.3,51.5,203.7,53.9z"/>
	<path class="st74" d="M120.3,23.5l-29.1-1.3c-6.9-0.3-12.7,5.1-13,12l0,1l29.1,1.3c6.9,0.3,12.7-5.1,13-12"/>
	<path class="st74" d="M115.3,16.2L88.3,19c-6.3,0.7-11,6.2-10.3,12.3l0.1,0.9l26.9-2.8c6.3-0.7,11-6.2,10.3-12.3"/>
	<path class="st74" d="M74.6,27.8l-3.4,16.8c-1,4.9,1.8,9.6,6.3,10.5l0,0l3.4-16.8C81.9,33.4,79,28.7,74.6,27.8L74.6,27.8z"/>
	<path class="st74" d="M123.5,46c0,0,0,8-4.1,14.1c-1.7,2.4-4.1,4.4-4.1,4.4s4.2-7.4,4.7-16.1L123.5,46z"/>
	<rect x="95.9" y="4.9" transform="matrix(0.4521 -0.892 0.892 0.4521 49.7012 93.005)" class="st81" width="9.4" height="2.4"/>
	
		<rect x="103.3" y="132.6" transform="matrix(5.866930e-02 -0.9983 0.9983 5.866930e-02 -38.6532 233.5665)" class="st81" width="2.4" height="9.4"/>
	
		<rect x="34.3" y="102.1" transform="matrix(0.9867 -0.1623 0.1623 0.9867 -16.2468 7.7038)" class="st82" width="9.4" height="2.4"/>
	<rect x="65.9" y="6" transform="matrix(0.8108 -0.5853 0.5853 0.8108 7.0422 40.9116)" class="st24" width="1.8" height="7"/>
	
		<rect x="50.4" y="40.5" transform="matrix(5.866930e-02 -0.9983 0.9983 5.866930e-02 4.3852 92.6338)" class="st21" width="1.8" height="7"/>
	<rect x="125.5" y="4.8" transform="matrix(0.9163 -0.4006 0.4006 0.9163 7.26 51.3071)" class="st40" width="1.8" height="7"/>
	
		<rect x="87.2" y="124.5" transform="matrix(0.9163 -0.4006 0.4006 0.9163 -43.9257 46.0025)" class="st40" width="1.8" height="7"/>
	
		<rect x="169.7" y="9.5" transform="matrix(0.2568 -0.9665 0.9665 0.2568 119.2815 176.5258)" class="st81" width="9.4" height="2.4"/>
	
		<rect x="19.7" y="98.8" transform="matrix(0.1152 -0.9933 0.9933 0.1152 -77.7746 112.7455)" class="st21" width="9.4" height="2.4"/>
	<rect x="72.7" y="115" transform="matrix(0.2568 -0.9665 0.9665 0.2568 -59.8417 159.2656)" class="st82" width="1.8" height="7"/>
	
		<rect x="112.2" y="93" transform="matrix(0.7877 -0.6161 0.6161 0.7877 -33.2144 92.0348)" class="st24" width="9.4" height="2.4"/>
	
		<rect x="96.2" y="108.4" transform="matrix(5.866930e-02 -0.9983 0.9983 5.866930e-02 -14.3539 203.8846)" class="st81" width="9.4" height="2.4"/>
	<rect x="43.1" y="27.9" transform="matrix(0.9664 -0.2571 0.2571 0.9664 -5.879 13.2631)" class="st40" width="9.4" height="2.4"/>
	
		<rect x="259.9" y="103.8" transform="matrix(0.7071 -0.7071 0.7071 0.7071 3.2903 217.8339)" class="st24" width="9.4" height="2.4"/>
	
		<rect x="250.4" y="36.9" transform="matrix(0.1385 -0.9904 0.9904 0.1385 181.3715 284.0589)" class="st21" width="7" height="1.8"/>
	
		<rect x="237.5" y="15.6" transform="matrix(0.8287 -0.5597 0.5597 0.8287 32.0849 137.7145)" class="st24" width="7" height="1.8"/>
	
		<rect x="253.9" y="82.9" transform="matrix(0.4521 -0.892 0.892 0.4521 61.5914 275.5434)" class="st82" width="2.4" height="9.4"/>
	
		<rect x="234.9" y="110.8" transform="matrix(0.9664 -0.2571 0.2571 0.9664 -20.7292 65.3574)" class="st82" width="9.4" height="2.4"/>
	<rect x="212.5" y="17.6" transform="matrix(0.942 -0.3356 0.3356 0.942 6.3249 73.5794)" class="st82" width="7" height="1.8"/>
	<rect x="248" y="55.4" transform="matrix(0.6441 -0.765 0.765 0.6441 46.6089 213.4281)" class="st40" width="9.4" height="2.4"/>
	
		<rect x="247.3" y="70.2" transform="matrix(0.7476 -0.6641 0.6641 0.7476 13.6879 183.4153)" class="st21" width="1.8" height="7"/>
	<rect x="45.7" y="147.6" transform="matrix(0.6441 -0.765 0.765 0.6441 -99.0185 89.4049)" class="st81" width="1.8" height="7"/>
	<rect x="198.7" y="25.6" transform="matrix(0.6441 -0.765 0.765 0.6441 48.7722 163.0556)" class="st81" width="1.8" height="7"/>
	<rect x="268.4" y="71.9" transform="matrix(0.942 -0.3356 0.3356 0.942 -8.6759 95.4737)" class="st21" width="7" height="1.8"/>
	
		<rect x="197.3" y="6.2" transform="matrix(0.7071 -0.7071 0.7071 0.7071 53.9597 144.9959)" class="st21" width="9.4" height="2.4"/>
	<rect x="157.2" y="2.2" transform="matrix(0.7071 -0.7071 0.7071 0.7071 44.868 114.5548)" class="st21" width="7" height="1.8"/>
	<rect x="142.8" y="9" transform="matrix(0.4521 -0.892 0.892 0.4521 66.6535 135.9802)" class="st81" width="2.4" height="9.4"/>
	
		<rect x="258.4" y="145.5" transform="matrix(0.1152 -0.9933 0.9933 0.1152 87.0262 391.1055)" class="st21" width="9.4" height="2.4"/>
	
		<rect x="272" y="117.4" transform="matrix(0.9163 -0.4006 0.4006 0.9163 -24.5397 121.2971)" class="st82" width="11.7" height="3.8"/>
	
		<rect x="58.2" y="85.4" transform="matrix(0.6441 -0.765 0.765 0.6441 -48.4292 78.4301)" class="st24" width="3.8" height="11.7"/>
	<rect x="66.7" y="66" transform="matrix(0.7587 -0.6514 0.6514 0.7587 -28.9576 61.0536)" class="st21" width="2.4" height="7.3"/>
	
		<rect x="246.8" y="127.3" transform="matrix(0.7587 -0.6514 0.6514 0.7587 -26.7577 194.1616)" class="st82" width="3.8" height="11.7"/>
	
		<rect x="238.5" y="154.5" transform="matrix(0.3357 -0.942 0.942 0.3357 15.0425 334.0832)" class="st21" width="11.7" height="3.8"/>
	<path class="st38" d="M179.5,55.6l3.5-5.8c0.3-0.4-0.1-1-0.6-0.9l-5.6,0.6c-0.4,0-0.7,0.5-0.5,0.8l2.2,5.2
		C178.6,56,179.2,56.1,179.5,55.6z"/>
	<path class="st38" d="M170.1,42l-3.6,6c-0.2,0.4,0.1,0.9,0.5,0.9l5.8-0.6c0.4,0,0.6-0.4,0.5-0.8l-2.2-5.4
		C171,41.7,170.4,41.6,170.1,42z"/>
	<path class="st38" d="M176.3,46.4L176.3,46.4c1.3,0.8,1.8,2.6,0.9,4l-0.1,0.1c-0.8,1.3-2.6,1.8-4,0.9v0c-1.3-0.8-1.8-2.6-0.9-4
		l0.1-0.1C173.2,46,175,45.6,176.3,46.4z"/>
	<g>
		<path class="st45" d="M263.6,195.3H36.6c-7.5,0-13.5-6-13.5-13.4v-27.3c0-7.4,6-13.4,13.5-13.4h226.9c7.5,0,13.5,6,13.5,13.4v27.3
			C277.1,189.3,271,195.3,263.6,195.3z"/>
		<path class="st46" d="M78.6,168.2c0,2.7,1.6,5.5,4.7,5.5c2.7,0,3.6-1.7,4.9-1.7c1.3,0,2,0.9,2,1.8c0,1.3-2.3,3.4-6.9,3.4
			c-4.5,0-8.5-3.6-8.5-9c0-4.4,3.5-8.8,8.6-8.8c3.8,0,6.9,2.2,6.9,3.4c0,1.4-1,1.9-2,1.9c-1,0-2.1-1.9-4.9-1.9
			C81.2,162.8,78.6,164.8,78.6,168.2z"/>
		<path class="st46" d="M112.8,168.2c0,4.7-4.1,8.9-9.2,8.9c-5.2,0-9.2-4.1-9.2-8.9c0-4.8,4.2-8.9,9.2-8.9
			C109.2,159.4,112.8,163.6,112.8,168.2z M103.5,162.8c-3.3,0-5.5,2.6-5.5,5.5c0,2.4,2.3,5.4,5.5,5.4c3.3,0,5.4-2.9,5.4-5.4
			C109,165.3,107,162.8,103.5,162.8z"/>
		<path class="st46" d="M120.9,161.6v11.6h7.5c1.3,0,2.1,0.5,2.1,1.7c0,1.3-0.8,1.8-2.1,1.8H119c-1.2,0-1.8-0.8-1.8-1.8v-13.2
			c0-1.4,0.7-2,1.9-2C120.1,159.7,120.9,160.3,120.9,161.6z"/>
		<path class="st46" d="M138.4,161.6v11.6h7.5c1.3,0,2.1,0.5,2.1,1.7c0,1.3-0.8,1.8-2.1,1.8h-9.4c-1.2,0-1.8-0.8-1.8-1.8v-13.2
			c0-1.4,0.7-2,1.9-2C137.6,159.7,138.4,160.3,138.4,161.6z"/>
		<path class="st46" d="M155.8,163.3v3.2h6.4c1.2,0,2,0.6,2,1.7c0,1.3-0.8,1.8-2,1.8h-6.4v3.1h7.9c1.4,0,2,0.7,2,1.7
			c0,1.1-0.6,1.8-2,1.8h-10.1c-1,0-1.5-0.5-1.5-1.4v-13.8c0-0.9,0.6-1.6,1.5-1.6h10.2c1.3,0,2,0.6,2,1.7c0,1.2-0.8,1.8-2.1,1.8
			H155.8z"/>
		<path class="st46" d="M173.8,168.1c0,2.6,2.1,5.5,5.4,5.5c2.7,0,4.7-1.2,4.7-1.4V170h-5.3c-1,0-1.6-0.7-1.6-1.7
			c0-0.8,0.6-1.7,1.6-1.7h7.2c1.3,0,2.1,0.7,2.1,1.9v4.1c0,1.5-1.2,2.2-2.7,3.1c-1.5,0.9-3.4,1.5-6.3,1.5c-5,0-8.7-4.3-8.7-8.9
			c0-4.8,3.5-8.9,8.9-8.9c2.5,0,4.8,0.5,6.2,1.7c0.6,0.5,1,1.1,1,1.6c0,1.1-0.8,1.6-1.8,1.6c-1.2,0-2-1.4-5.4-1.4
			C176.1,162.8,173.8,165.1,173.8,168.1z"/>
		<path class="st46" d="M196.4,163.3v3.2h6.4c1.2,0,2,0.6,2,1.7c0,1.3-0.8,1.8-2,1.8h-6.4v3.1h7.9c1.4,0,2,0.7,2,1.7
			c0,1.1-0.6,1.8-2,1.8h-10.1c-1,0-1.5-0.5-1.5-1.4v-13.8c0-0.9,0.6-1.6,1.5-1.6h10.2c1.3,0,2,0.6,2,1.7c0,1.2-0.8,1.8-2.1,1.8
			H196.4z"/>
		<path class="st46" d="M217.9,177.1c-4.8,0-7.1-2-7.1-3.3c0-1.3,0.8-1.8,1.8-1.8c1.5,0,2.1,1.6,5.1,1.6c3.1,0,3.8-1,3.8-1.7
			c0-1.1-1.1-1.8-3.5-2.3c-4.5-0.9-6.8-2.3-6.8-5.6c0-1.7,1.2-4.6,6.6-4.6c4.5,0,6.9,1.6,6.9,3.2c0,1.1-0.7,1.7-1.8,1.7
			c-1.3,0-2.1-1.4-5.1-1.4c-2,0-2.8,0.7-2.8,1.4c0,0.9,0.8,1.4,3.8,2c4.6,0.9,6.5,2.7,6.5,5.7C225.4,175.5,222.1,177.1,217.9,177.1z
			"/>
	</g>
	<path class="st22" d="M48,121.1c0,0,41.8-3.7,44.1,1c1,2.1,2.6,13.6,2.6,13.6c-2.2,2.2-42.4,14.4-59.8,2
		C27.9,132.8,42.4,121.1,48,121.1z"/>
	<g>
		<polygon class="st83" points="150.7,152.1 150.7,118.2 162.8,118.2 162.8,152.1 156.8,147.4 		"/>
		<circle class="st84" cx="156.6" cy="121" r="14.8"/>
		<path class="st33" d="M159.7,126.3l-5.3-11.8c-0.2-0.5-0.3-0.8-0.8-0.8c-0.4,0-0.6,0.4-0.8,0.8l-5.3,11.8c-0.1,0.2-0.1,0.4,0,0.5
			c0.1,0.2,0.3,0.4,0.5,0.4c0.6,0,0.8-0.5,0.9-0.7l1.2-2.6h7l1.3,2.9c0.1,0.3,0.4,0.4,0.7,0.4c0.4,0,0.5-0.2,0.6-0.3
			C159.8,126.8,159.8,126.5,159.7,126.3z M156.4,122.7h-5.6l1.3-3l1.6-3.7l1.6,3.9L156.4,122.7z"/>
		<path class="st33" d="M166.2,120.5h-2.6v-2.4c0-0.3-0.2-0.5-0.5-0.5c-0.3,0-0.5,0.2-0.5,0.5v2.4h-2.6c-0.3,0-0.5,0.2-0.5,0.5
			s0.2,0.5,0.5,0.5h2.6v2.4c0,0.3,0.2,0.5,0.5,0.5c0.3,0,0.5-0.2,0.5-0.5v-2.4h2.6c0.3,0,0.5-0.2,0.5-0.5S166.5,120.5,166.2,120.5z"
			/>
	</g>
</g>
</svg>
