<?xml version="1.0" encoding="utf-8"?>
<!-- Generator: Adobe Illustrator 22.1.0, SVG Export Plug-In . SVG Version: 6.00 Build 0)  -->
<svg version="1.1" id="Layer_1" xmlns="http://www.w3.org/2000/svg" xmlns:xlink="http://www.w3.org/1999/xlink" x="0px" y="0px"
	 viewBox="0 0 300 178.5" style="enable-background:new 0 0 300 178.5;" xml:space="preserve">
<style type="text/css">
	.st0{clip-path:url(#SVGID_2_);}
	.st1{fill:url(#SVGID_3_);}
	.st2{fill:url(#SVGID_4_);}
	.st3{fill:url(#SVGID_5_);}
	.st4{clip-path:url(#SVGID_7_);}
	.st5{fill:url(#SVGID_8_);}
	.st6{fill:url(#SVGID_9_);}
	.st7{fill:url(#SVGID_10_);}
	.st8{fill:url(#SVGID_11_);}
	.st9{fill:url(#SVGID_12_);}
	.st10{fill:url(#SVGID_13_);}
	.st11{clip-path:url(#SVGID_15_);fill:url(#SVGID_16_);}
	.st12{fill:#A4D394;}
	.st13{clip-path:url(#SVGID_18_);fill:url(#SVGID_19_);}
	.st14{fill:#7CBC67;}
	.st15{fill:url(#SVGID_20_);}
	.st16{fill:url(#SVGID_21_);}
	.st17{fill:url(#SVGID_22_);}
	.st18{fill:url(#SVGID_23_);}
	.st19{fill:#5FA251;}
	.st20{fill:none;}
	.st21{fill:#FAAF99;}
	.st22{fill:#F78F6A;}
	.st23{fill:#E6F9FC;}
	.st24{fill:#F5DF7B;}
	.st25{fill:#539B4B;}
	.st26{fill:#9B886D;}
	.st27{fill:#FCF4C9;}
	.st28{fill:#50AEE2;}
	.st29{fill:#51C8FC;}
	.st30{fill:#C4B299;}
	.st31{fill:#CDBC9D;}
	.st32{fill:#B4A285;}
	.st33{fill:#FFFFFF;}
	.st34{fill:none;stroke:#F78F6A;stroke-width:2.2399;stroke-linecap:round;stroke-miterlimit:10;}
	.st35{fill:none;stroke:#FFFEDF;stroke-width:0.8574;stroke-linecap:round;stroke-miterlimit:10;}
	.st36{fill:#333333;}
	.st37{fill:#FCCEC7;}
	.st38{fill:#77D3FA;}
	.st39{fill:#F58E6B;}
	.st40{fill:#F9EAA2;}
	.st41{fill:#919090;}
	.st42{fill:none;stroke:#FCF4C9;stroke-width:0.7615;stroke-linecap:round;stroke-linejoin:round;stroke-miterlimit:10;}
	.st43{fill:none;stroke:#FCF4C9;stroke-width:0.708;stroke-linecap:round;stroke-linejoin:round;stroke-miterlimit:10;}
	.st44{fill:#87765C;}
	.st45{fill:#0B6333;}
	.st46{fill:#F8FFDE;}
	.st47{fill:#BBBBBB;}
	.st48{fill:#CDE9C1;}
	.st49{fill:#C4E7F6;}
	.st50{fill:none;stroke:#FCCEC7;stroke-width:2.4149;stroke-linecap:round;stroke-miterlimit:10;}
	.st51{fill:none;stroke:#333333;stroke-width:3.2647;stroke-linecap:round;stroke-miterlimit:10;}
	.st52{fill:none;stroke:#FFFEDF;stroke-width:0.984;stroke-miterlimit:10;}
	.st53{fill:none;stroke:#FFFEDF;stroke-width:1.476;stroke-linecap:round;stroke-miterlimit:10;}
	.st54{fill:none;stroke:#FFFEDF;stroke-width:1.4047;stroke-linecap:round;stroke-miterlimit:10;}
	.st55{fill:#BDECC9;}
	.st56{clip-path:url(#SVGID_25_);fill:#F5DF7B;}
	.st57{clip-path:url(#SVGID_25_);fill:#9B886D;}
	
		.st58{clip-path:url(#SVGID_25_);fill:none;stroke:#787879;stroke-width:5.9338;stroke-linecap:round;stroke-linejoin:round;stroke-miterlimit:10;}
	.st59{fill:#5FAFE1;}
	.st60{fill:#B2A083;}
	.st61{fill:#E6FCF9;}
	.st62{fill:none;stroke:#FFFEDF;stroke-width:0.9134;stroke-miterlimit:10;}
	.st63{fill:#938069;}
	.st64{fill:#5F5F5F;}
	.st65{fill:none;stroke:#FFE4E1;stroke-width:2.0642;stroke-linecap:round;stroke-miterlimit:10;}
	.st66{clip-path:url(#SVGID_27_);fill:#9B886D;}
	.st67{clip-path:url(#SVGID_27_);fill:#C4B299;}
	.st68{clip-path:url(#SVGID_27_);fill:#F78F6A;}
	.st69{clip-path:url(#SVGID_27_);fill:#FAAF99;}
	.st70{clip-path:url(#SVGID_27_);fill:#F5DF7B;}
	.st71{clip-path:url(#SVGID_27_);fill:#5F5F5F;}
	.st72{clip-path:url(#SVGID_27_);fill:#CDBC9D;}
	.st73{clip-path:url(#SVGID_27_);fill:#FFE4E1;}
	.st74{fill:#787878;}
	.st75{fill:none;stroke:#FCCEC7;stroke-width:2.219;stroke-linecap:round;stroke-miterlimit:10;}
	.st76{fill:none;stroke:#FFFEDF;stroke-width:0.8876;stroke-miterlimit:10;}
	.st77{fill:none;stroke:#FFFEDF;stroke-width:1.3314;stroke-linecap:round;stroke-miterlimit:10;}
	.st78{fill:none;stroke:#5F5F5F;stroke-width:1.561;stroke-miterlimit:10;}
	.st79{fill:none;stroke:#F78F6A;stroke-width:2.219;stroke-linecap:round;stroke-miterlimit:10;}
	.st80{fill:#9B948C;}
	.st81{fill:#A2DEDC;}
	.st82{fill:#8AC8EF;}
	.st83{fill:#59A452;}
	.st84{fill:#419243;}
</style>
<g>
	<polygon class="st32" points="111.6,68.1 130.1,94.9 118.6,98.7 110.2,80.7 	"/>
	<g>
		<g>
			<path class="st47" d="M200.7,124.5h-70.7c-1.8,0-3.3-1.6-3.3-3.5V3.5c0-1.9,1.5-3.5,3.3-3.5h70.7c1.8,0,3.3,1.6,3.3,3.5v117.6
				C204,123,202.5,124.5,200.7,124.5z"/>
			<path class="st23" d="M195.2,100.1h-59.8c-1.2,0-2.2-1-2.2-2.2V15.4c0-1.2,1-2.2,2.2-2.2h59.8c1.2,0,2.2,1,2.2,2.2v82.5
				C197.4,99.2,196.4,100.1,195.2,100.1z"/>
			<path class="st47" d="M195.3,100.1h-60.1c-1.2,0-2.1-0.9-2.1-2.1v-9h64.3v9C197.4,99.2,196.5,100.1,195.3,100.1z"/>
			<path class="st48" d="M151.2,33.9h-12c-1,0-1.8-0.8-1.8-1.9V19.6c0-0.9,0.8-1.7,1.8-1.7h12c1,0,1.8,0.8,1.8,1.8v12.5
				C153,33.1,152.2,33.9,151.2,33.9z"/>
			<path class="st48" d="M171.5,33.9h-12.1c-1,0-1.8-0.8-1.8-1.8V19.6c0-1,0.8-1.8,1.8-1.8h12.1c1,0,1.8,0.8,1.8,1.8v12.5
				C173.3,33.1,172.5,33.9,171.5,33.9z"/>
			<path class="st48" d="M191.7,33.9h-12.1c-1,0-1.8-0.8-1.8-1.8V19.6c0-1,0.8-1.8,1.8-1.8h12.1c1,0,1.8,0.8,1.8,1.8v12.5
				C193.5,33.1,192.7,33.9,191.7,33.9z"/>
			<path class="st48" d="M151.3,55.1h-12.1c-1,0-1.8-0.8-1.8-1.8V40.8c0-1,0.8-1.8,1.8-1.8h12.1c1,0,1.8,0.8,1.8,1.8v12.5
				C153,54.3,152.2,55.1,151.3,55.1z"/>
			<path class="st48" d="M171.5,55.1h-12.1c-1,0-1.8-0.8-1.8-1.8V40.8c0-1,0.8-1.8,1.8-1.8h12.1c1,0,1.8,0.8,1.8,1.8v12.5
				C173.3,54.3,172.5,55.1,171.5,55.1z"/>
			<path class="st48" d="M191.7,55.1h-12.1c-1,0-1.8-0.8-1.8-1.8V40.8c0-1,0.8-1.8,1.8-1.8h12.1c1,0,1.8,0.8,1.8,1.8v12.5
				C193.5,54.3,192.7,55.1,191.7,55.1z"/>
			<path class="st48" d="M151.3,76.7h-12.1c-1,0-1.8-0.8-1.8-1.8V62.5c0-1,0.8-1.8,1.8-1.8h12.1c1,0,1.8,0.8,1.8,1.8V75
				C153,76,152.2,76.7,151.3,76.7z"/>
			<path class="st48" d="M171.5,76.7h-12.1c-1,0-1.8-0.8-1.8-1.8V62.5c0-1,0.8-1.8,1.8-1.8h12.1c1,0,1.8,0.8,1.8,1.8V75
				C173.3,76,172.5,76.7,171.5,76.7z"/>
			<path class="st48" d="M191.7,76.7h-12.1c-1,0-1.8-0.8-1.8-1.8V62.5c0-1,0.8-1.8,1.8-1.8h12.1c1,0,1.8,0.8,1.8,1.8V75
				C193.5,76,192.7,76.7,191.7,76.7z"/>
		</g>
		<path class="st49" d="M170.2,8.1l-8.9,0c-0.8,0-1.4-0.6-1.4-1.4v0c0-0.8,0.6-1.4,1.4-1.4h8.9c0.8,0,1.4,0.6,1.4,1.4v0
			C171.6,7.5,170.9,8.1,170.2,8.1z"/>
	</g>
	<path class="st36" d="M99.7,43l-1.5,12.2c-0.3,3.5-6.2,12-16.3,11.3h0c-8.7-0.7-14.9-6.1-14.9-14.6l1.1-11.6L99.7,43z"/>
	<path class="st29" d="M53.1,132.6c0,0,3.5-48.9,8.2-55.6c4.6-6.7,17.6-17.6,36.2-15.8c14.7,1.4,18.5,10.9,18.2,24.2
		c-0.4,14.7-5.4,17.7-5.4,17.7L103,102l-11.6,32.9L53.1,132.6z"/>
	<path class="st32" d="M90,110.1c0,0,2.1-3,9.6-1.9c7.4,1.2,11.8,5.4,12.1,8.1s-7-1.6-11.2-0.4c-4.3,1.2-12,1.7-14.1,0.9
		C84.3,115.9,90,110.1,90,110.1z"/>
	<path class="st22" d="M133.3,125.1H72.7c-3.2,0-5.7-2.6-5.7-5.7v0c0-3.2,2.6-5.7,5.7-5.7h60.6c3.2,0,5.7,2.6,5.7,5.7v0
		C139,122.5,136.4,125.1,133.3,125.1z"/>
	<path class="st26" d="M98,69.5l-0.5-0.1c-4.3-0.6-7.2-4.6-6.6-8.8l1.8-12.3l15.9,2.3l-1.8,12.3C106.2,67.2,102.3,70.1,98,69.5z"/>
	<path class="st36" d="M103.2,57.8L66.9,52l1.7-22.7l63.4,4.4l0,0C130.9,49.4,118.9,58.9,103.2,57.8z"/>
	<path class="st36" d="M104.3,0.1L104.3,0.1C86-1.4,69.8,12.6,68.7,29l-0.3,4.1l63.6,1.1l0,0C133.4,16.7,122.5,1.6,104.3,0.1z"/>
	<path class="st26" d="M77.8,45.2l3.9-0.7l-1.3-9.8c-0.3-2.3-2.3-3.8-4.4-3.5l0,0c-2.1,0.4-3.6,2.5-3.3,4.8l0.8,5.6
		C73.7,44,75.6,45.6,77.8,45.2z"/>
	<path class="st26" d="M122.3,48.9l-3.7-1.3l2.9-9.4c0.7-2.2,2.9-3.4,4.9-2.7l0,0c2,0.7,3.1,3.1,2.5,5.3l-1.7,5.4
		C126.5,48.3,124.3,49.6,122.3,48.9z"/>
	<path class="st32" d="M99.7,63.6l-1.3-0.1c-12.2-1-21.4-11.8-20.4-24l0.6-7.8c1-12.2,11.8-21.4,24-20.4l1.3,0.1
		c12.2,1,21.4,11.8,20.4,24l-0.6,7.8C122.8,55.4,112,64.6,99.7,63.6z"/>
	<path class="st50" d="M95.6,53.5c0,0,6.4,2.7,12.9-1.5"/>
	<path class="st51" d="M86.7,29.6c0,0,2.2-1.7,5.1-1.4c3.2,0.2,4.4,1.9,4.4,1.9"/>
	<path class="st44" d="M101.7,49l-0.2,0c-1.8-0.1-3.2-1.8-3.1-3.6l0.3-3.6c0.1-1.8,1.8-3.2,3.6-3.1l0.2,0c1.8,0.1,3.2,1.8,3.1,3.6
		l-0.3,3.6C105.1,47.8,103.5,49.2,101.7,49z"/>
	<circle class="st33" cx="90.4" cy="36.7" r="3.2"/>
	<circle class="st33" cx="113.9" cy="38.6" r="3.2"/>
	<path class="st36" d="M117.9,32.8l-7.8-0.6c-0.9-0.1-1.6-0.9-1.5-1.8l0-0.1c0.1-0.9,0.9-1.6,1.8-1.5l7.8,0.6
		c0.9,0.1,1.6,0.9,1.5,1.8l0,0.1C119.6,32.1,118.8,32.8,117.9,32.8z"/>
	<path class="st52" d="M94.1,42.4l-8.5-0.7c-1.7-0.1-2.9-1.6-2.8-3.3l0.4-4.3c0.1-1.7,1.6-2.9,3.3-2.8l8.5,0.7
		c1.7,0.1,2.9,1.6,2.8,3.3l-0.4,4.3C97.3,41.3,95.8,42.5,94.1,42.4z"/>
	<path class="st52" d="M117.7,44.3l-8.5-0.7c-1.7-0.1-2.9-1.6-2.8-3.3l0.4-4.3c0.1-1.7,1.6-2.9,3.3-2.8l8.5,0.7
		c1.7,0.1,2.9,1.6,2.8,3.3l-0.4,4.3C120.9,43.2,119.4,44.5,117.7,44.3z"/>
	<line class="st52" x1="97.6" y1="37.3" x2="106.6" y2="38"/>
	<line class="st53" x1="78.6" y1="32.1" x2="82.8" y2="35.5"/>
	<line class="st54" x1="124.4" y1="35.4" x2="121.4" y2="39.3"/>
	<path class="st36" d="M116.3,14.4L89.7,25.1c-3.3,1.4-6.9,0.1-8.2-2.9v0c-1.2-3,0.4-6.5,3.7-7.8l20.6-8.6L116.3,14.4z"/>
	<path class="st36" d="M98.8,25.6l-0.1-0.2c-0.9-2,0-4.4,2.1-5.2l20-8.7l3.3,7.5l-20,8.7C102,28.5,99.7,27.6,98.8,25.6z"/>
	<path class="st36" d="M116,26l-0.1-0.2c-0.9-2,0-4.4,2.1-5.2l10.2-4.4l0.5,8.1l-7.5,3.9C119.2,28.9,116.9,28,116,26z"/>
	<circle class="st55" cx="75.8" cy="42.1" r="1.4"/>
	<circle class="st55" cx="125.4" cy="46.7" r="1.4"/>
	<g>
		<g>
			<path class="st38" d="M77.3,9.7l-6.1,4.8c-0.5,0.4-0.3,1.1,0.3,1.2l6.3,1.7c0.5,0.1,0.9-0.2,0.9-0.7l-0.2-6.5
				C78.4,9.7,77.8,9.3,77.3,9.7z"/>
			<path class="st38" d="M81.7,28l6.3-4.9c0.4-0.3,0.3-1-0.2-1.1l-6.4-1.7c-0.4-0.1-0.8,0.2-0.8,0.6l0.2,6.6
				C80.6,28.1,81.3,28.4,81.7,28z"/>
		</g>
		<path class="st38" d="M76.9,20.8L76.9,20.8c-1.1-1.4-0.8-3.5,0.6-4.6l0.1-0.1c1.4-1.1,3.5-0.8,4.6,0.6l0,0
			c1.1,1.4,0.8,3.5-0.6,4.6l-0.1,0.1C80,22.6,78,22.3,76.9,20.8z"/>
	</g>
	<path class="st22" d="M156.8,125.1H89.2c-1.4,0-2.5-1.1-2.5-2.5V83.1c0-1.4,1.1-2.5,2.5-2.5h67.7c1.4,0,2.5,1.1,2.5,2.5v39.5
		C159.3,124,158.2,125.1,156.8,125.1z"/>
	<path class="st32" d="M46.6,91.9c-2.2,3.5-10.8,14.5-9.2,20.7c3,11.8,49.3,1,49.3,1v-9.4L59,101.7c0,0,10.5-11.3,16.4-18.4
		c5.1-6.2,5.9-11.9,1.9-15C73.5,65.4,57.7,74.6,46.6,91.9z"/>
	<g>
		<path class="st12" d="M225.5,78.7c-1.4-4.8-3.4-9.3-5.3-13.6c-3.2-7.5-5.3-14-5.3-23.4c0-9.1,3.4-16.4,6.8-22.3
			c2.9-5.1,4.3-6.2,4.3-7.9c0-1.6-1-2.6-2.3-2.6c-1.3,0-2.3,1.4-3,2.4c-1.5,2.3-3.5,5.7-4.6,8c-3.7,7.4-5.9,14.1-5.9,22.4
			c0,10.6,2.6,16.4,5.6,24.2c1.4,3.8,3.1,7.4,4.4,11.2"/>
		<path class="st12" d="M238.4,78.7c-0.9-5-2.7-9.6-5.2-14.6c-1.1-2.3-3.1-5.7-4.6-8c-0.7-1-1.8-2.4-3-2.4c-1.3,0-2.3,1-2.3,2.6
			c0,1.7,1.4,2.8,4.3,7.9c2.4,4.1,4.8,8.9,6,14.6"/>
		<path class="st12" d="M213.4,28.6h-8.8c-8.5,0-15.3-6.9-15.3-15.3v0h8.8C206.6,13.2,213.4,20.1,213.4,28.6L213.4,28.6z"/>
		<path class="st12" d="M215,48.5h8.8c8.5,0,15.3-6.9,15.3-15.3v0h-8.8C221.9,33.2,215,40.1,215,48.5L215,48.5z"/>
		<path class="st12" d="M233.7,66.6h8.8c8.5,0,15.3-6.9,15.3-15.3v0H249C240.5,51.3,233.7,58.1,233.7,66.6L233.7,66.6z"/>
		<path class="st37" d="M229.2,109L229.2,109c-10.5,0-19-8.9-19-19.8V74.5h38v14.7C248.2,100.1,239.7,109,229.2,109z"/>
	</g>
	<circle class="st37" cx="123" cy="100.7" r="6.4"/>
	<path class="st45" d="M264.6,178.5H35.4c-7.5,0-13.6-6-13.6-13.4v-27.3c0-7.4,6.1-13.4,13.6-13.4h229.1c7.5,0,13.6,6,13.6,13.4V165
		C278.2,172.4,272.1,178.5,264.6,178.5z"/>
	<g>
		<path class="st46" d="M72.5,146.3l-3.6,11.6c-0.5,1.5-1.2,2.1-2.3,2.1c-1.1,0-1.7-0.6-2.1-2.1l-2-7.3l-0.2-1.1l-0.2,1.1l-2,7.3
			c-0.4,1.5-1.3,2.1-2.3,2.1c-1.1,0-1.8-0.6-2.2-2.1L52,146.3c-0.2-0.5-0.3-1.4-0.3-1.9c0-1.1,1-1.7,2.1-1.7c0.9,0,1.5,0.7,1.7,1.5
			l2,7.7l0.3,1.3l0.3-1.3l1.9-7.1c0.4-1.5,1.1-2.1,2.4-2.1c1.2,0,2.1,0.5,2.4,2.2l1.8,7.1l0.2,1.2L67,152l2.3-7.8
			c0.2-0.9,0.9-1.5,1.6-1.5c1.1,0,2,0.6,2,1.7C72.9,145,72.6,145.8,72.5,146.3z"/>
		<path class="st46" d="M95,151.4c0,4.7-4.1,8.9-9.2,8.9c-5.2,0-9.2-4.1-9.2-8.9c0-4.8,4.2-8.9,9.2-8.9
			C91.5,142.5,95,146.7,95,151.4z M85.7,145.9c-3.3,0-5.5,2.6-5.5,5.5c0,2.4,2.3,5.4,5.5,5.4c3.3,0,5.4-2.9,5.4-5.4
			C91.2,148.5,89.2,145.9,85.7,145.9z"/>
		<path class="st46" d="M110.4,160c-1,0-1.6-1.3-1.6-1.3l-2.2-4.3h-3.3v3.7c0,1.1-0.8,1.8-1.9,1.8c-1.1,0-1.8-0.8-1.8-1.8v-13.4
			c0-1.1,0.6-1.8,1.7-1.8h5.8c4.3,0,6.9,2.6,6.9,5.6c0,2.1-1,4.2-3.4,5.2l1.6,2.8c0,0,0.5,1,0.5,1.5
			C112.4,159.1,111.8,160,110.4,160z M103.2,151h4c1.7,0,2.8-1,2.8-2.3c0-1.3-1.3-2.2-2.9-2.2h-3.9V151z"/>
		<path class="st46" d="M134.4,158.1c0,1.1-0.7,1.9-2,1.9c-0.7,0-1.5-1.1-1.8-1.4l-5.4-5.9l-2.9,2.4v2.9c0,1.5-0.7,2-1.9,2
			c-1.4,0-1.8-0.6-1.8-2.1v-13.1c0-1.3,0.7-1.9,1.9-1.9c1.1,0,1.8,0.6,1.8,1.9v5.7l8.2-7c0.4-0.4,1-0.7,1.7-0.7
			c0.8,0,1.6,0.6,1.6,1.4c0,0.6-0.3,1.3-1,1.9l-4.7,4.2l5.3,5.8C133.9,156.8,134.4,157.4,134.4,158.1z"/>
		<path class="st46" d="M142.7,154.4v3.6c0,1.1-0.6,1.9-1.9,1.9c-1.4,0-1.8-0.9-1.8-1.9v-13.3c0-1.1,0.6-1.8,1.7-1.8h5.8
			c4.3,0,6.9,2.6,6.9,5.6c0,3-1.9,5.8-7,5.8H142.7z M142.7,151h4c1.7,0,2.8-1,2.8-2.3c0-1.3-1.3-2.2-2.9-2.2h-3.9V151z"/>
		<path class="st46" d="M161.7,144.8v11.6h7.5c1.3,0,2.1,0.5,2.1,1.7c0,1.3-0.8,1.8-2.1,1.8h-9.4c-1.2,0-1.8-0.8-1.8-1.8v-13.2
			c0-1.4,0.7-2,1.9-2C160.9,142.9,161.7,143.5,161.7,144.8z"/>
		<path class="st46" d="M175.1,157.1l7-13.3c0.4-0.9,1.2-1.2,1.8-1.2c0.6,0,1.4,0.3,1.8,1.2l6.9,13.4c0.7,1.4,0.1,3.1-1.5,3.1
			c-1.1,0-1.5-0.8-1.9-1.6l-0.8-1.5h-9.1l-0.8,1.5c-0.4,0.8-0.8,1.6-2.1,1.6C175.2,160.3,174.2,158.9,175.1,157.1z M183.8,148
			l-2.8,5.7h5.6L183.8,148z"/>
		<path class="st46" d="M199.2,151.3c0,2.7,1.6,5.5,4.7,5.5c2.7,0,3.6-1.7,4.9-1.7c1.3,0,2,0.9,2,1.8c0,1.3-2.3,3.4-6.9,3.4
			c-4.5,0-8.5-3.6-8.5-9c0-4.4,3.5-8.8,8.6-8.8c3.8,0,6.9,2.2,6.9,3.4c0,1.4-1,1.9-2,1.9c-1,0-2.1-1.9-4.9-1.9
			C201.8,145.9,199.2,148,199.2,151.3z"/>
		<path class="st46" d="M219.3,146.5v3.2h6.4c1.2,0,2,0.6,2,1.7c0,1.3-0.8,1.8-2,1.8h-6.4v3.1h7.9c1.4,0,2,0.7,2,1.7
			c0,1.1-0.6,1.8-2,1.8h-10.1c-1,0-1.5-0.5-1.5-1.4v-13.8c0-0.9,0.6-1.6,1.5-1.6h10.2c1.3,0,2,0.6,2,1.7c0,1.2-0.8,1.8-2.1,1.8
			H219.3z"/>
		<path class="st46" d="M240.8,160.3c-4.8,0-7.1-2-7.1-3.3c0-1.3,0.8-1.8,1.8-1.8c1.5,0,2.1,1.6,5.1,1.6c3.1,0,3.8-1,3.8-1.7
			c0-1.1-1.1-1.8-3.5-2.3c-4.5-0.9-6.8-2.3-6.8-5.6c0-1.7,1.2-4.6,6.6-4.6c4.5,0,6.9,1.6,6.9,3.2c0,1.1-0.7,1.7-1.8,1.7
			c-1.3,0-2.1-1.4-5.1-1.4c-2,0-2.8,0.7-2.8,1.4c0,0.9,0.8,1.4,3.8,2c4.6,0.9,6.5,2.7,6.5,5.7C248.3,158.6,245,160.3,240.8,160.3z"
			/>
	</g>
	<g>
		<g>
			<defs>
				<path id="SVGID_24_" d="M255.4,124c0-0.2,0-0.5,0-0.7c0-1.9-0.2-3.7-0.5-5.3c-3-19-19.5-33.5-39.4-33.3h0
					c-21,0.1-37.9,17.3-37.8,38.3l0,1.5l66.3-0.5c-0.1,0.8-0.3,1.7-0.7,2.4c-1.3,2.7-4.5,4.7-9.6,5.7c-8.9,1.9-13.4-0.6-14.4-1.2
					l-0.1-0.1c-2.1-2.3-5.6-2.5-7.9-0.5c-2.3,2.1-2.5,5.6-0.5,7.9l0.7,0.8l0.2,0.2c0.7,0.6,5.8,4.9,16,4.8c2.5,0,5.2-0.3,8.3-0.9
					c8.8-1.8,14.6-5.9,17.5-12C254.7,128.8,255.2,126.3,255.4,124L255.4,124L255.4,124z"/>
			</defs>
			<use xlink:href="#SVGID_24_"  style="overflow:visible;fill:#9B886D;"/>
			<clipPath id="SVGID_2_">
				<use xlink:href="#SVGID_24_"  style="overflow:visible;"/>
			</clipPath>
			<path style="clip-path:url(#SVGID_2_);fill:#F5DF7B;" d="M255.4,124c0-0.2,0-0.5,0-0.7c0-1.9-0.2-3.7-0.5-5.3
				c-3-19-19.5-33.5-39.4-33.3h0c-21,0.1-37.9,17.3-37.8,38.3l0,1.5l66.3-0.5c-0.1,0.8-0.3,1.7-0.7,2.4c-1.3,2.7-4.5,4.7-9.6,5.7
				c-8.9,1.9-13.4-0.6-14.4-1.2l-0.1-0.1c-2.1-2.3-5.6-2.5-7.9-0.5c-2.3,2.1-2.5,5.6-0.5,7.9l0.7,0.8l0.2,0.2
				c0.7,0.6,5.8,4.9,16,4.8c2.5,0,5.2-0.3,8.3-0.9c8.8-1.8,14.6-5.9,17.5-12C254.7,128.8,255.2,126.3,255.4,124L255.4,124L255.4,124
				z"/>
			<path style="clip-path:url(#SVGID_2_);fill:#9B886D;" d="M198.9,113.4c-1.6,0-3-1.3-3-2.9l-0.2-30.9c0-1.6,1.3-3,2.9-3
				c0,0,0,0,0,0c1.6,0,3,1.3,3,2.9l0.2,30.9C201.9,112.1,200.6,113.4,198.9,113.4C198.9,113.4,198.9,113.4,198.9,113.4z"/>
			<path style="clip-path:url(#SVGID_2_);fill:#9B886D;" d="M215.8,113.3c-1.6,0-3-1.3-3-2.9l-0.2-30.9c0-1.6,1.3-3,2.9-3
				c1.6,0,3,1.3,3,2.9l0.2,30.9C218.8,112,217.5,113.3,215.8,113.3C215.8,113.3,215.8,113.3,215.8,113.3z"/>
			<path style="clip-path:url(#SVGID_2_);fill:#9B886D;" d="M232.7,113.2c-1.6,0-3-1.3-3-2.9l-0.2-30.9c0-1.6,1.3-3,2.9-3
				c0,0,0,0,0,0c1.6,0,3,1.3,3,2.9l0.2,30.9C235.7,111.9,234.3,113.2,232.7,113.2C232.7,113.2,232.7,113.2,232.7,113.2z"/>
			<path style="clip-path:url(#SVGID_2_);fill:#9B886D;" d="M215.5,147.9c-0.4,0-0.9-0.1-1.3-0.3c-1.5-0.7-2.1-2.5-1.3-4l7.3-14.7
				c0.7-1.5,2.5-2.1,4-1.3c1.5,0.7,2.1,2.5,1.3,4l-7.3,14.7C217.7,147.3,216.6,147.9,215.5,147.9z"/>
			<path style="clip-path:url(#SVGID_2_);fill:#9B886D;" d="M232.3,151.7c-1.6,0-2.9-1.2-3-2.8l-1.1-19.1c-0.1-1.6,1.2-3,2.8-3.1
				c1.6-0.1,3,1.2,3.1,2.8l1.1,19.1c0.1,1.6-1.2,3-2.8,3.1C232.4,151.7,232.4,151.7,232.3,151.7z"/>
			<path style="clip-path:url(#SVGID_2_);fill:#9B886D;" d="M248.2,147c-1.1,0-2.1-0.6-2.6-1.6l-7.8-15.3c-0.7-1.5-0.2-3.2,1.3-4
				c1.5-0.7,3.2-0.2,4,1.3l7.8,15.3c0.7,1.5,0.2,3.2-1.3,4C249.1,146.9,248.6,147,248.2,147z"/>
		</g>
		<path class="st24" d="M175.1,124.3l-18.6,0.1v0c0-3.5,2.8-6.3,6.3-6.3L175,118L175.1,124.3z"/>
		
			<ellipse transform="matrix(0.83 -0.5577 0.5577 0.83 -32.8632 119.4304)" class="st24" cx="179.5" cy="113.6" rx="19.7" ry="16.7"/>
		<path class="st24" d="M162.6,121.6c0,0-12.8-10.3-12.1-12.8c0.7-2.5,18.3-5,18.8-4.8c0.4,0.1,0.1,10.8,0.1,10.8L162.6,121.6z"/>
		<path class="st24" d="M193.1,101.1c0,0-4.7-15.7-7.3-16.1s-11.5,15.1-11.6,15.6c0,0.5,9.9,4.2,9.9,4.2L193.1,101.1z"/>
		<g>
			<path class="st26" d="M185.7,122.3c-0.5,0-1-0.2-1.3-0.4c-0.7-0.4-1.1-0.9-1.1-1l-1.3-1.8c-0.2-0.2-0.1-0.5,0.1-0.7
				c0.2-0.2,0.5-0.1,0.7,0.1l1.3,1.8c0.1,0.2,1.1,1.5,2.5,0.6c0.5-0.3,0.7-0.8,0.7-1.4c0-0.5-0.3-1-0.3-1c-0.1-0.3,0-0.6,0.2-0.7
				c0.3-0.1,0.6,0,0.7,0.2c0.4,0.8,0.8,2.7-0.8,3.7C186.6,122.2,186.1,122.3,185.7,122.3z"/>
			<path class="st26" d="M182.3,124.8c-0.9,0-1.8-0.6-2.3-1c-0.2-0.2-0.2-0.5,0-0.7s0.5-0.2,0.7,0c0.1,0,1.3,1.2,2.3,0.4
				c1.3-1,0.4-2.4,0.3-2.6l-1.3-1.8c-0.2-0.2-0.1-0.5,0.1-0.7c0.2-0.2,0.5-0.1,0.7,0.1l1.3,1.8c0,0.1,0.4,0.6,0.5,1.3
				c0.1,0.7,0.1,1.8-1,2.6C183.2,124.7,182.7,124.8,182.3,124.8z"/>
		</g>
		<g>
			<path class="st26" d="M170,123c-0.3,0-0.5-0.2-0.5-0.4c-0.2-1.8,0.6-3.6,2.1-4.7c1.5-1,3.4-1.1,5-0.2c0.2,0.1,0.3,0.4,0.2,0.7
				c-0.1,0.2-0.4,0.3-0.7,0.2c-1.3-0.7-2.8-0.6-4,0.2c-1.2,0.8-1.8,2.2-1.7,3.7C170.5,122.7,170.3,123,170,123
				C170,123,170,123,170,123z"/>
			<path class="st26" d="M183.7,113.6c-0.3,0-0.5-0.2-0.5-0.4c-0.2-1.8,0.6-3.6,2.1-4.7c1.5-1,3.4-1.1,5-0.2
				c0.2,0.1,0.3,0.4,0.2,0.7c-0.1,0.2-0.4,0.3-0.7,0.2c-1.3-0.7-2.8-0.6-4,0.2c-1.2,0.8-1.8,2.2-1.7,3.7
				C184.3,113.3,184.1,113.6,183.7,113.6C183.8,113.6,183.7,113.6,183.7,113.6z"/>
		</g>
	</g>
</g>
</svg>
