<svg width="1080" height="1080" viewBox="0 0 1080 1080" fill="none" xmlns="http://www.w3.org/2000/svg">
<g clip-path="url(#clip0_109_339)">
<mask id="mask0_109_339" style="mask-type:luminance" maskUnits="userSpaceOnUse" x="0" y="0" width="1080" height="1080">
<path d="M1080 0H0V1080H1080V0Z" fill="white"/>
</mask>
<g mask="url(#mask0_109_339)">
<path d="M477.668 902.7H214.784C203.13 902.7 193.682 893.252 193.682 881.598V217.606C193.682 205.952 203.13 196.504 214.784 196.504H477.668C489.322 196.504 498.77 205.952 498.77 217.606V881.598C498.77 893.252 489.322 902.7 477.668 902.7Z" fill="#48937E"/>
<path d="M477.668 902.7H214.784C203.13 902.7 193.682 893.252 193.682 881.598V217.606C193.682 205.952 203.13 196.504 214.784 196.504H477.668C489.322 196.504 498.77 205.952 498.77 217.606V881.598C498.77 893.252 489.322 902.7 477.668 902.7Z" fill="#48937E" stroke="#002F21" stroke-width="4.063" stroke-miterlimit="10" stroke-dasharray="16.25 16.25"/>
<path d="M372.893 540.602C372.893 555.33 360.954 567.269 346.226 567.269C331.498 567.269 319.559 555.33 319.559 540.602C319.559 525.874 331.498 513.935 346.226 513.935C360.954 513.935 372.893 525.874 372.893 540.602Z" stroke="#002F21" stroke-width="2.864" stroke-miterlimit="10"/>
<path d="M344.715 542.042H338.527V539.162H344.715V532.6H347.735V539.162H353.923V542.042H347.735V548.604H344.715V542.042Z" fill="white"/>
<path d="M868.07 901.464H605.186C593.532 901.464 584.084 892.016 584.084 880.362V216.37C584.084 204.716 593.532 195.268 605.186 195.268H868.07C879.724 195.268 889.172 204.716 889.172 216.37V880.362C889.172 892.016 879.724 901.464 868.07 901.464Z" fill="#48937E"/>
<path d="M868.07 901.464H605.186C593.532 901.464 584.084 892.016 584.084 880.362V216.37C584.084 204.716 593.532 195.268 605.186 195.268H868.07C879.724 195.268 889.172 204.716 889.172 216.37V880.362C889.172 892.016 879.724 901.464 868.07 901.464Z" stroke="#002F21" stroke-width="4.063" stroke-miterlimit="10" stroke-dasharray="16.25 16.25"/>
<path d="M763.295 539.367C763.295 554.095 751.356 566.034 736.628 566.034C721.9 566.034 709.961 554.095 709.961 539.367C709.961 524.639 721.9 512.7 736.628 512.7C751.356 512.7 763.295 524.639 763.295 539.367Z" stroke="#002F21" stroke-width="2.864" stroke-miterlimit="10"/>
<path d="M735.118 540.807H728.93V537.927H735.118V531.365H738.138V537.927H744.326V540.807H738.138V547.369H735.118V540.807Z" fill="white"/>
</g>
<path d="M280.537 625H277.767L285.778 603.182H288.506L296.517 625H293.747L287.227 606.634H287.057L280.537 625ZM281.56 616.477H292.724V618.821H281.56V616.477ZM305.754 625.341C304.39 625.341 303.186 624.996 302.142 624.308C301.098 623.612 300.281 622.631 299.692 621.367C299.102 620.096 298.808 618.594 298.808 616.861C298.808 615.142 299.102 613.651 299.692 612.386C300.281 611.122 301.102 610.146 302.153 609.457C303.204 608.768 304.418 608.423 305.796 608.423C306.862 608.423 307.703 608.601 308.321 608.956C308.946 609.304 309.422 609.702 309.749 610.149C310.082 610.589 310.342 610.952 310.526 611.236H310.739V603.182H313.254V625H310.825V622.486H310.526C310.342 622.784 310.079 623.161 309.738 623.615C309.397 624.062 308.911 624.464 308.278 624.819C307.646 625.167 306.805 625.341 305.754 625.341ZM306.094 623.082C307.103 623.082 307.955 622.82 308.651 622.294C309.347 621.761 309.876 621.026 310.239 620.089C310.601 619.144 310.782 618.054 310.782 616.818C310.782 615.597 310.604 614.528 310.249 613.612C309.894 612.688 309.369 611.971 308.673 611.46C307.977 610.941 307.117 610.682 306.094 610.682C305.029 610.682 304.141 610.955 303.431 611.502C302.728 612.042 302.199 612.777 301.844 613.707C301.496 614.631 301.322 615.668 301.322 616.818C301.322 617.983 301.499 619.041 301.854 619.993C302.217 620.937 302.749 621.69 303.452 622.251C304.163 622.805 305.043 623.082 306.094 623.082ZM324.386 625.341C323.023 625.341 321.819 624.996 320.775 624.308C319.731 623.612 318.914 622.631 318.325 621.367C317.735 620.096 317.44 618.594 317.44 616.861C317.44 615.142 317.735 613.651 318.325 612.386C318.914 611.122 319.734 610.146 320.786 609.457C321.837 608.768 323.051 608.423 324.429 608.423C325.494 608.423 326.336 608.601 326.954 608.956C327.579 609.304 328.055 609.702 328.381 610.149C328.715 610.589 328.974 610.952 329.159 611.236H329.372V603.182H331.886V625H329.457V622.486H329.159C328.974 622.784 328.712 623.161 328.371 623.615C328.03 624.062 327.543 624.464 326.911 624.819C326.279 625.167 325.438 625.341 324.386 625.341ZM324.727 623.082C325.736 623.082 326.588 622.82 327.284 622.294C327.98 621.761 328.509 621.026 328.871 620.089C329.234 619.144 329.415 618.054 329.415 616.818C329.415 615.597 329.237 614.528 328.882 613.612C328.527 612.688 328.001 611.971 327.305 611.46C326.609 610.941 325.75 610.682 324.727 610.682C323.662 610.682 322.774 610.955 322.064 611.502C321.361 612.042 320.832 612.777 320.477 613.707C320.129 614.631 319.955 615.668 319.955 616.818C319.955 617.983 320.132 619.041 320.487 619.993C320.849 620.937 321.382 621.69 322.085 622.251C322.795 622.805 323.676 623.082 324.727 623.082ZM350.093 625.384C349.056 625.384 348.115 625.188 347.27 624.798C346.425 624.4 345.754 623.828 345.256 623.082C344.759 622.33 344.511 621.42 344.511 620.355C344.511 619.418 344.695 618.658 345.065 618.075C345.434 617.486 345.928 617.024 346.545 616.69C347.163 616.357 347.845 616.108 348.591 615.945C349.344 615.774 350.1 615.639 350.86 615.54C351.854 615.412 352.661 615.316 353.278 615.252C353.903 615.181 354.358 615.064 354.642 614.901C354.933 614.737 355.079 614.453 355.079 614.048V613.963C355.079 612.912 354.791 612.095 354.216 611.513C353.648 610.93 352.785 610.639 351.627 610.639C350.427 610.639 349.486 610.902 348.804 611.428C348.122 611.953 347.643 612.514 347.366 613.111L344.979 612.259C345.406 611.264 345.974 610.49 346.684 609.936C347.401 609.375 348.183 608.984 349.028 608.764C349.88 608.537 350.718 608.423 351.542 608.423C352.067 608.423 352.671 608.487 353.353 608.615C354.042 608.736 354.706 608.988 355.345 609.371C355.991 609.755 356.528 610.334 356.954 611.108C357.38 611.882 357.593 612.919 357.593 614.219V625H355.079V622.784H354.951C354.781 623.139 354.496 623.519 354.099 623.924C353.701 624.329 353.172 624.673 352.511 624.957C351.851 625.241 351.045 625.384 350.093 625.384ZM350.477 623.125C351.471 623.125 352.309 622.93 352.991 622.539C353.68 622.148 354.198 621.644 354.546 621.026C354.901 620.408 355.079 619.759 355.079 619.077V616.776C354.972 616.903 354.738 617.021 354.376 617.127C354.021 617.227 353.609 617.315 353.14 617.393C352.678 617.464 352.227 617.528 351.787 617.585C351.354 617.635 351.002 617.678 350.732 617.713C350.079 617.798 349.468 617.937 348.9 618.129C348.339 618.313 347.884 618.594 347.536 618.97C347.195 619.339 347.025 619.844 347.025 620.483C347.025 621.357 347.348 622.017 347.994 622.464C348.648 622.905 349.475 623.125 350.477 623.125ZM377.267 625.341C375.733 625.341 374.412 624.979 373.304 624.254C372.196 623.53 371.344 622.532 370.747 621.261C370.151 619.989 369.852 618.537 369.852 616.903C369.852 615.241 370.158 613.775 370.769 612.504C371.387 611.225 372.246 610.227 373.347 609.51C374.455 608.786 375.747 608.423 377.225 608.423C378.375 608.423 379.412 608.636 380.335 609.062C381.259 609.489 382.015 610.085 382.605 610.852C383.194 611.619 383.56 612.514 383.702 613.537H381.188C380.996 612.791 380.57 612.131 379.909 611.555C379.256 610.973 378.375 610.682 377.267 610.682C376.287 610.682 375.428 610.937 374.689 611.449C373.958 611.953 373.386 612.667 372.974 613.59C372.569 614.506 372.367 615.582 372.367 616.818C372.367 618.082 372.566 619.183 372.963 620.121C373.368 621.058 373.936 621.786 374.668 622.305C375.406 622.823 376.273 623.082 377.267 623.082C377.921 623.082 378.514 622.969 379.046 622.741C379.579 622.514 380.03 622.188 380.399 621.761C380.769 621.335 381.031 620.824 381.188 620.227H383.702C383.56 621.193 383.208 622.063 382.647 622.837C382.093 623.604 381.358 624.215 380.442 624.67C379.533 625.117 378.475 625.341 377.267 625.341ZM387.377 625V608.636H389.892V625H387.377ZM388.656 605.909C388.166 605.909 387.743 605.742 387.388 605.408C387.04 605.075 386.866 604.673 386.866 604.205C386.866 603.736 387.04 603.335 387.388 603.001C387.743 602.667 388.166 602.5 388.656 602.5C389.146 602.5 389.565 602.667 389.913 603.001C390.268 603.335 390.445 603.736 390.445 604.205C390.445 604.673 390.268 605.075 389.913 605.408C389.565 605.742 389.146 605.909 388.656 605.909ZM401.613 608.636V610.767H393.133V608.636H401.613ZM395.604 604.716H398.119V620.312C398.119 621.023 398.222 621.555 398.428 621.911C398.641 622.259 398.911 622.493 399.237 622.614C399.571 622.727 399.923 622.784 400.292 622.784C400.569 622.784 400.796 622.77 400.974 622.741C401.151 622.706 401.293 622.678 401.4 622.656L401.911 624.915C401.741 624.979 401.503 625.043 401.197 625.107C400.892 625.178 400.505 625.213 400.036 625.213C399.326 625.213 398.63 625.06 397.948 624.755C397.273 624.45 396.712 623.984 396.265 623.359C395.825 622.734 395.604 621.946 395.604 620.994V604.716ZM407.014 631.136C406.588 631.136 406.208 631.101 405.874 631.03C405.54 630.966 405.31 630.902 405.182 630.838L405.821 628.622C406.432 628.778 406.972 628.835 407.44 628.793C407.909 628.75 408.325 628.54 408.687 628.164C409.056 627.795 409.393 627.195 409.699 626.364L410.168 625.085L404.116 608.636H406.844L411.361 621.676H411.531L416.048 608.636H418.776L411.83 627.386C411.517 628.232 411.13 628.931 410.668 629.485C410.207 630.046 409.67 630.462 409.06 630.732C408.456 631.001 407.774 631.136 407.014 631.136Z" fill="white"/>
<path d="M669.537 625H666.767L674.778 603.182H677.506L685.517 625H682.747L676.227 606.634H676.057L669.537 625ZM670.56 616.477H681.724V618.821H670.56V616.477ZM694.754 625.341C693.39 625.341 692.186 624.996 691.142 624.308C690.098 623.612 689.281 622.631 688.692 621.367C688.102 620.096 687.808 618.594 687.808 616.861C687.808 615.142 688.102 613.651 688.692 612.386C689.281 611.122 690.102 610.146 691.153 609.457C692.204 608.768 693.418 608.423 694.796 608.423C695.862 608.423 696.703 608.601 697.321 608.956C697.946 609.304 698.422 609.702 698.749 610.149C699.082 610.589 699.342 610.952 699.526 611.236H699.739V603.182H702.254V625H699.825V622.486H699.526C699.342 622.784 699.079 623.161 698.738 623.615C698.397 624.062 697.911 624.464 697.278 624.819C696.646 625.167 695.805 625.341 694.754 625.341ZM695.094 623.082C696.103 623.082 696.955 622.82 697.651 622.294C698.347 621.761 698.876 621.026 699.239 620.089C699.601 619.144 699.782 618.054 699.782 616.818C699.782 615.597 699.604 614.528 699.249 613.612C698.894 612.688 698.369 611.971 697.673 611.46C696.977 610.941 696.117 610.682 695.094 610.682C694.029 610.682 693.141 610.955 692.431 611.502C691.728 612.042 691.199 612.777 690.844 613.707C690.496 614.631 690.322 615.668 690.322 616.818C690.322 617.983 690.499 619.041 690.854 619.993C691.217 620.937 691.749 621.69 692.452 622.251C693.163 622.805 694.043 623.082 695.094 623.082ZM713.386 625.341C712.023 625.341 710.819 624.996 709.775 624.308C708.731 623.612 707.914 622.631 707.325 621.367C706.735 620.096 706.44 618.594 706.44 616.861C706.44 615.142 706.735 613.651 707.325 612.386C707.914 611.122 708.734 610.146 709.786 609.457C710.837 608.768 712.051 608.423 713.429 608.423C714.494 608.423 715.336 608.601 715.954 608.956C716.579 609.304 717.055 609.702 717.381 610.149C717.715 610.589 717.974 610.952 718.159 611.236H718.372V603.182H720.886V625H718.457V622.486H718.159C717.974 622.784 717.712 623.161 717.371 623.615C717.03 624.062 716.543 624.464 715.911 624.819C715.279 625.167 714.438 625.341 713.386 625.341ZM713.727 623.082C714.736 623.082 715.588 622.82 716.284 622.294C716.98 621.761 717.509 621.026 717.871 620.089C718.234 619.144 718.415 618.054 718.415 616.818C718.415 615.597 718.237 614.528 717.882 613.612C717.527 612.688 717.001 611.971 716.305 611.46C715.609 610.941 714.75 610.682 713.727 610.682C712.662 610.682 711.774 610.955 711.064 611.502C710.361 612.042 709.832 612.777 709.477 613.707C709.129 614.631 708.955 615.668 708.955 616.818C708.955 617.983 709.132 619.041 709.487 619.993C709.849 620.937 710.382 621.69 711.085 622.251C711.795 622.805 712.676 623.082 713.727 623.082ZM739.093 625.384C738.056 625.384 737.115 625.188 736.27 624.798C735.425 624.4 734.754 623.828 734.256 623.082C733.759 622.33 733.511 621.42 733.511 620.355C733.511 619.418 733.695 618.658 734.065 618.075C734.434 617.486 734.928 617.024 735.545 616.69C736.163 616.357 736.845 616.108 737.591 615.945C738.344 615.774 739.1 615.639 739.86 615.54C740.854 615.412 741.661 615.316 742.278 615.252C742.903 615.181 743.358 615.064 743.642 614.901C743.933 614.737 744.079 614.453 744.079 614.048V613.963C744.079 612.912 743.791 612.095 743.216 611.513C742.648 610.93 741.785 610.639 740.627 610.639C739.427 610.639 738.486 610.902 737.804 611.428C737.122 611.953 736.643 612.514 736.366 613.111L733.979 612.259C734.406 611.264 734.974 610.49 735.684 609.936C736.401 609.375 737.183 608.984 738.028 608.764C738.88 608.537 739.718 608.423 740.542 608.423C741.067 608.423 741.671 608.487 742.353 608.615C743.042 608.736 743.706 608.988 744.345 609.371C744.991 609.755 745.528 610.334 745.954 611.108C746.38 611.882 746.593 612.919 746.593 614.219V625H744.079V622.784H743.951C743.781 623.139 743.496 623.519 743.099 623.924C742.701 624.329 742.172 624.673 741.511 624.957C740.851 625.241 740.045 625.384 739.093 625.384ZM739.477 623.125C740.471 623.125 741.309 622.93 741.991 622.539C742.68 622.148 743.198 621.644 743.546 621.026C743.901 620.408 744.079 619.759 744.079 619.077V616.776C743.972 616.903 743.738 617.021 743.376 617.127C743.021 617.227 742.609 617.315 742.14 617.393C741.678 617.464 741.227 617.528 740.787 617.585C740.354 617.635 740.002 617.678 739.732 617.713C739.079 617.798 738.468 617.937 737.9 618.129C737.339 618.313 736.884 618.594 736.536 618.97C736.195 619.339 736.025 619.844 736.025 620.483C736.025 621.357 736.348 622.017 736.994 622.464C737.648 622.905 738.475 623.125 739.477 623.125ZM766.267 625.341C764.733 625.341 763.412 624.979 762.304 624.254C761.196 623.53 760.344 622.532 759.747 621.261C759.151 619.989 758.852 618.537 758.852 616.903C758.852 615.241 759.158 613.775 759.769 612.504C760.387 611.225 761.246 610.227 762.347 609.51C763.455 608.786 764.747 608.423 766.225 608.423C767.375 608.423 768.412 608.636 769.335 609.062C770.259 609.489 771.015 610.085 771.605 610.852C772.194 611.619 772.56 612.514 772.702 613.537H770.188C769.996 612.791 769.57 612.131 768.909 611.555C768.256 610.973 767.375 610.682 766.267 610.682C765.287 610.682 764.428 610.937 763.689 611.449C762.958 611.953 762.386 612.667 761.974 613.59C761.569 614.506 761.367 615.582 761.367 616.818C761.367 618.082 761.566 619.183 761.963 620.121C762.368 621.058 762.936 621.786 763.668 622.305C764.406 622.823 765.273 623.082 766.267 623.082C766.921 623.082 767.514 622.969 768.046 622.741C768.579 622.514 769.03 622.188 769.399 621.761C769.769 621.335 770.031 620.824 770.188 620.227H772.702C772.56 621.193 772.208 622.063 771.647 622.837C771.093 623.604 770.358 624.215 769.442 624.67C768.533 625.117 767.475 625.341 766.267 625.341ZM776.377 625V608.636H778.892V625H776.377ZM777.656 605.909C777.166 605.909 776.743 605.742 776.388 605.408C776.04 605.075 775.866 604.673 775.866 604.205C775.866 603.736 776.04 603.335 776.388 603.001C776.743 602.667 777.166 602.5 777.656 602.5C778.146 602.5 778.565 602.667 778.913 603.001C779.268 603.335 779.445 603.736 779.445 604.205C779.445 604.673 779.268 605.075 778.913 605.408C778.565 605.742 778.146 605.909 777.656 605.909ZM790.613 608.636V610.767H782.133V608.636H790.613ZM784.604 604.716H787.119V620.312C787.119 621.023 787.222 621.555 787.428 621.911C787.641 622.259 787.911 622.493 788.237 622.614C788.571 622.727 788.923 622.784 789.292 622.784C789.569 622.784 789.796 622.77 789.974 622.741C790.151 622.706 790.293 622.678 790.4 622.656L790.911 624.915C790.741 624.979 790.503 625.043 790.197 625.107C789.892 625.178 789.505 625.213 789.036 625.213C788.326 625.213 787.63 625.06 786.948 624.755C786.273 624.45 785.712 623.984 785.265 623.359C784.825 622.734 784.604 621.946 784.604 620.994V604.716ZM796.014 631.136C795.588 631.136 795.208 631.101 794.874 631.03C794.54 630.966 794.31 630.902 794.182 630.838L794.821 628.622C795.432 628.778 795.972 628.835 796.44 628.793C796.909 628.75 797.325 628.54 797.687 628.164C798.056 627.795 798.393 627.195 798.699 626.364L799.168 625.085L793.116 608.636H795.844L800.361 621.676H800.531L805.048 608.636H807.776L800.83 627.386C800.517 628.232 800.13 628.931 799.668 629.485C799.207 630.046 798.67 630.462 798.06 630.732C797.456 631.001 796.774 631.136 796.014 631.136Z" fill="white"/>
</g>
<defs>
<clipPath id="clip0_109_339">
<rect width="1080" height="1080" fill="white"/>
</clipPath>
</defs>
</svg>
