<svg xmlns="http://www.w3.org/2000/svg" xmlns:xlink="http://www.w3.org/1999/xlink" viewBox="0 0 219.1 89.96"><defs><linearGradient id="a" y1="44.98" x2="149.49" y2="44.98" gradientUnits="userSpaceOnUse"><stop offset="0" stop-color="#fff"/><stop offset="1" stop-color="#e6f9fc"/></linearGradient><linearGradient id="b" x1="119.73" y1="60.06" x2="219.1" y2="60.06" gradientUnits="userSpaceOnUse"><stop offset="0" stop-color="#e6f9fc"/><stop offset="1" stop-color="#fff"/></linearGradient></defs><title>Artboard 4</title><path d="M134.27,90H15.21A15.21,15.21,0,0,1,0,74.74H0A74.74,74.74,0,0,1,74.74,0h0a74.75,74.75,0,0,1,74.75,74.74h0A15.21,15.21,0,0,1,134.27,90Z" style="fill:url(#a)"/><path d="M209,90H129.84a10.11,10.11,0,0,1-10.11-10.12h0a49.69,49.69,0,0,1,49.68-49.69h0A49.69,49.69,0,0,1,219.1,79.84h0A10.11,10.11,0,0,1,209,90Z" style="fill:url(#b)"/></svg>