<svg xmlns="http://www.w3.org/2000/svg" xmlns:xlink="http://www.w3.org/1999/xlink" viewBox="0 0 303.47 109.56"><defs><linearGradient id="a" y1="54.78" x2="303.47" y2="54.78" gradientUnits="userSpaceOnUse"><stop offset="0" stop-color="#fff"/><stop offset="0.79" stop-color="#e6f9fc"/></linearGradient></defs><title>Artboard 3</title><path d="M302.76,89.23C298,61.14,273.31,39.78,243.42,39.78a60,60,0,0,0-29.67,7.65A79.93,79.93,0,0,0,65.86,51.92a51.06,51.06,0,0,0-15.51-2.47c-24.28,0-44.51,16.86-49.23,39.33A48,48,0,0,0,0,98.67a53.13,53.13,0,0,0,.22,6.46c.68,2,2.7,4.43,5.17,4.43h292.2c2.47,0,4.5-2.41,5.17-4.66C304.11,102.43,303.21,92.38,302.76,89.23Z" style="fill:url(#a)"/></svg>